<svg xmlns="http://www.w3.org/2000/svg" viewBox="0 0 81 85.15"><defs><style>.cls-1{fill:#b2e0e5;}.cls-2{fill:#4d4d4d;}.cls-3{fill:#f1edea;}.cls-4{fill:#46a6b5;}</style></defs><title>cotizadorico-</title><g id="Layer_2" data-name="Layer 2"><g id="Layer_1-2" data-name="Layer 1"><ellipse class="cls-1" cx="40.5" cy="42.58" rx="40.5" ry="42.58"/><path class="cls-2" d="M59.56,67.25a2.08,2.08,0,0,1-2,2.13H23.47a2.08,2.08,0,0,1-2-2.13V17.9a2.08,2.08,0,0,1,2-2.13H57.53a2.08,2.08,0,0,1,2,2.13Z"/><path class="cls-3" d="M55.23,29.9a2.08,2.08,0,0,1-2,2.13H27.8a2.08,2.08,0,0,1-2-2.13V25.06a2.08,2.08,0,0,1,2-2.13H53.2a2.08,2.08,0,0,1,2,2.13V29.9Z"/><path class="cls-3" d="M33.75,41.58a2.08,2.08,0,0,1-2,2.13H27.8a2.08,2.08,0,0,1-2-2.13V37.7a2.08,2.08,0,0,1,2-2.13h3.93a2.08,2.08,0,0,1,2,2.13Z"/><path class="cls-3" d="M44.49,41.58a2.08,2.08,0,0,1-2,2.13H38.53a2.08,2.08,0,0,1-2-2.13V37.7a2.08,2.08,0,0,1,2-2.13h3.93a2.08,2.08,0,0,1,2,2.13Z"/><path class="cls-3" d="M55.23,41.58a2.08,2.08,0,0,1-2,2.13H49.28a2.08,2.08,0,0,1-2-2.13V37.7a2.08,2.08,0,0,1,2-2.13H53.2a2.08,2.08,0,0,1,2,2.13Z"/><path class="cls-3" d="M33.75,53.17a2.08,2.08,0,0,1-2,2.13H27.8a2.08,2.08,0,0,1-2-2.13V49.3a2.08,2.08,0,0,1,2-2.13h3.93a2.08,2.08,0,0,1,2,2.13Z"/><path class="cls-3" d="M44.49,53.17a2.08,2.08,0,0,1-2,2.13H38.53a2.08,2.08,0,0,1-2-2.13V49.3a2.08,2.08,0,0,1,2-2.13h3.93a2.08,2.08,0,0,1,2,2.13Z"/><path class="cls-3" d="M55.23,53.17a2.08,2.08,0,0,1-2,2.13H49.28a2.08,2.08,0,0,1-2-2.13V49.3a2.08,2.08,0,0,1,2-2.13H53.2a2.08,2.08,0,0,1,2,2.13Z"/><path class="cls-4" d="M55.23,61.54a2.08,2.08,0,0,1-2,2.13H38a2.08,2.08,0,0,1-2-2.13v-1.4A2.08,2.08,0,0,1,38,58H53.2a2.08,2.08,0,0,1,2,2.13Z"/><path class="cls-1" d="M52.34,27.48a1.3,1.3,0,0,1-1.26,1.33H36.33a1.3,1.3,0,0,1-1.27-1.33h0a1.3,1.3,0,0,1,1.27-1.33H51.08a1.3,1.3,0,0,1,1.26,1.33Z"/></g></g></svg>