<svg id="Layer_1" data-name="Layer 1" xmlns="http://www.w3.org/2000/svg" xmlns:xlink="http://www.w3.org/1999/xlink" viewBox="0 0 387.3 387.31"><defs><style>.cls-1{fill:none;}.cls-2{fill:#46a6b5;}.cls-3{clip-path:url(#clip-path);}.cls-4{fill:#4d4d4d;}.cls-5{fill:#c2b8b1;}.cls-6{fill:#efebe8;}.cls-7{fill:#b2e0e5;}.cls-8{fill:#c1272d;}.cls-9{fill:#111449;}.cls-10{fill:#fff;}.cls-11{fill:#6ccad5;}.cls-12{fill:#49acbc;}.cls-13{fill:#333;}</style><clipPath id="clip-path" transform="translate(-27.35 -66.35)"><rect class="cls-1" x="86.92" y="169.71" width="268.17" height="202.82" rx="30.52" ry="30.52"/></clipPath></defs><title>ico-blog</title><circle class="cls-2" cx="193.65" cy="193.66" r="193.65"/><g class="cls-3"><path class="cls-4" d="M369.74,381.43h0a25.86,25.86,0,0,1-25.86,25.86H98.23a25.86,25.86,0,0,1-25.86-25.86h0a25.86,25.86,0,0,1,25.86-25.86H343.89A25.86,25.86,0,0,1,369.74,381.43Z" transform="translate(-27.35 -66.35)"/><path class="cls-5" d="M350.35,200.42V342.64a25.86,25.86,0,0,1-25.86,25.86H117.62a25.86,25.86,0,0,1-25.86-25.86V200.42a25.86,25.86,0,0,1,25.86-25.86H324.49A25.86,25.86,0,0,1,350.35,200.42Z" transform="translate(-27.35 -66.35)"/><path class="cls-6" d="M324.49,355.57H117.62a12.93,12.93,0,0,1-12.93-12.93V200.42a12.93,12.93,0,0,1,12.93-12.93H324.49a12.93,12.93,0,0,1,12.93,12.93V342.64A12.93,12.93,0,0,1,324.49,355.57Z" transform="translate(-27.35 -66.35)"/><path class="cls-7" d="M308.33,227.89H133.78a9.7,9.7,0,0,1-9.7-9.7h0a9.7,9.7,0,0,1,9.7-9.7H308.33a9.7,9.7,0,0,1,9.7,9.7h0A9.7,9.7,0,0,1,308.33,227.89Zm-93.74,24.24h0a9.7,9.7,0,0,0-9.7-9.7H133.78a9.7,9.7,0,0,0-9.7,9.7h0a9.7,9.7,0,0,0,9.7,9.7H204.9A9.7,9.7,0,0,0,214.59,252.13Zm103.43,0h0a9.7,9.7,0,0,0-9.7-9.7H237.22a9.7,9.7,0,0,0-9.7,9.7h0a9.7,9.7,0,0,0,9.7,9.7h71.11A9.7,9.7,0,0,0,318,252.13Z" transform="translate(-27.35 -66.35)"/><path class="cls-7" d="M308.33,332.94H133.78a9.7,9.7,0,0,1-9.7-9.7V284.46a9.7,9.7,0,0,1,9.7-9.7H308.33a9.7,9.7,0,0,1,9.7,9.7v38.79A9.7,9.7,0,0,1,308.33,332.94Z" transform="translate(-27.35 -66.35)"/><path class="cls-4" d="M353.64,352.3a30.57,30.57,0,0,0,1.56-9.66V200.42a30.74,30.74,0,0,0-30.71-30.71H117.62a30.74,30.74,0,0,0-30.71,30.71V342.64a30.58,30.58,0,0,0,1.56,9.66,30.71,30.71,0,0,0,9.76,59.83H343.89A30.71,30.71,0,0,0,353.64,352.3Zm-257-151.88a21,21,0,0,1,21-21H324.49a21,21,0,0,1,21,21V342.64a21,21,0,0,1-21,21H117.62a21,21,0,0,1-21-21V200.42Zm247.27,202H98.23a21,21,0,0,1-5.16-41.38,30.68,30.68,0,0,0,24.56,12.29H324.49A30.68,30.68,0,0,0,349,361.06,21,21,0,0,1,343.89,402.44Z" transform="translate(-27.35 -66.35)"/></g><path class="cls-8" d="M153.5,327.27l-1.35,1.35,0,0-11.09,11.09a4.24,4.24,0,0,1-3,1.24h0a4.24,4.24,0,0,1-3-1.24L124,328.67l0,0-1.35-1.35a9.93,9.93,0,0,1,0-14h0a9.93,9.93,0,0,1,14,0l1.35,1.35,1.35-1.35a9.93,9.93,0,0,1,14,0h0A9.93,9.93,0,0,1,153.5,327.27Z" transform="translate(-27.35 -66.35)"/><polygon class="cls-9" points="251.08 228.15 256.63 223.54 262.18 228.15 256.63 241.97 251.08 228.15"/><polygon class="cls-10" points="256.63 197.58 268.9 211.4 262.18 228.15 251.08 228.15 244.36 211.4 256.63 197.58"/><polygon class="cls-11" points="244.36 105.82 244.36 211.4 259.69 211.4 264.29 96.61 244.36 105.82"/><polygon class="cls-12" points="259.69 98.91 268.9 105.82 268.9 211.4 259.69 211.4 259.69 98.91"/><path class="cls-13" d="M287,172.17h9.21V159.74A12.29,12.29,0,0,0,284,147.47Z" transform="translate(-27.35 -66.35)"/><path class="cls-4" d="M271.7,159.74A12.29,12.29,0,0,1,284,147.47c1.69,0,3.06,5.5,3.06,12.27v12.43H271.7V159.74Z" transform="translate(-27.35 -66.35)"/></svg>