<svg xmlns="http://www.w3.org/2000/svg" viewBox="0 0 85 85"><defs><style>.cls-1{fill:#b2e0e5;}.cls-2,.cls-7{fill:#49adbd;}.cls-3,.cls-6{fill:#f1edea;}.cls-4,.cls-8{fill:#333;}.cls-5{fill:#4d4d4d;}.cls-10,.cls-11,.cls-5,.cls-6,.cls-7,.cls-8{fill-rule:evenodd;}.cls-10,.cls-9{fill:#b3afaf;}.cls-11{fill:#f9f6f4;}</style></defs><title>profesionalesico-</title><g id="Layer_2" data-name="Layer 2"><g id="Layer_1-2" data-name="Layer 1"><circle class="cls-1" cx="42.5" cy="42.5" r="42.5"/><rect class="cls-2" x="34.79" y="17.69" width="17.18" height="13.59" rx="0.93" ry="0.93"/><rect class="cls-3" x="35.77" y="18.74" width="15.22" height="11.2" rx="0.77" ry="0.77"/><rect class="cls-4" x="37.01" y="19.94" width="12.73" height="5.81" rx="0.4" ry="0.4"/><path class="cls-5" d="M37.46,23.78l11.7-3.41a.34.34,0,0,1,.14.27v.87L37.46,25Z"/><polygon class="cls-5" points="39.16 25.39 49.3 22.44 49.3 23.21 41.83 25.39 39.16 25.39"/><polygon class="cls-5" points="43.73 25.39 49.3 23.77 49.3 24.54 46.39 25.39 43.73 25.39"/><polygon class="cls-5" points="37.45 22.22 44.05 20.3 46.71 20.3 37.45 22.99 37.45 22.22"/><rect class="cls-2" x="18.8" y="26.77" width="4.32" height="7.98" rx="1.18" ry="1.18"/><path class="cls-2" d="M25,26.77H26.9A1.18,1.18,0,0,1,28.09,28v5.61a1.18,1.18,0,0,1-1.18,1.18H25a1.19,1.19,0,0,1-1.19-1.19V28A1.18,1.18,0,0,1,25,26.77Z"/><rect class="cls-2" x="61.46" y="26.77" width="6.53" height="7.98" rx="1.79" ry="1.79"/><rect class="cls-3" x="13.84" y="30.12" width="59.08" height="31.99" rx="3.53" ry="3.53"/><path class="cls-6" d="M51,26.92a20.81,20.81,0,0,1,7,34.23H28.8a20.81,20.81,0,0,1,7-34.23Z"/><rect class="cls-2" x="13.84" y="36.85" width="59.08" height="21.72"/><circle class="cls-2" cx="20.96" cy="36.85" r="2.1" transform="translate(-21.44 36.51) rotate(-59.92)"/><path class="cls-7" d="M43.38,62.11a16,16,0,1,0-16-16A16,16,0,0,0,43.38,62.11Z"/><circle class="cls-2" cx="25.93" cy="36.85" r="2.1" transform="translate(-18.96 40.81) rotate(-59.91)"/><path class="cls-6" d="M43.38,60.14a14,14,0,1,0-14-14A14.06,14.06,0,0,0,43.38,60.14Z"/><path class="cls-5" d="M43.38,58.66A12.54,12.54,0,1,0,30.84,46.11,12.57,12.57,0,0,0,43.38,58.66Z"/><path class="cls-8" d="M43.38,55.48A9.37,9.37,0,1,0,34,46.11,9.39,9.39,0,0,0,43.38,55.48Z"/><circle class="cls-9" cx="43.38" cy="46.11" r="3.35"/><path class="cls-10" d="M38.55,40a7.85,7.85,0,0,1,3.08-1.46A.84.84,0,1,1,42,40.17a5.62,5.62,0,0,0-2.42,1.14C38.58,42.15,37.55,40.82,38.55,40Z"/><path class="cls-10" d="M36.06,48.73a7.83,7.83,0,0,1,.42-6.21.83.83,0,1,1,1.47.77,6,6,0,0,0-.32,4.88A.84.84,0,1,1,36.06,48.73Z"/><circle class="cls-3" cx="25.93" cy="54.36" r="3.19" transform="translate(-34.1 49.55) rotate(-59.92)"/><circle class="cls-2" cx="25.93" cy="54.36" r="2.79" transform="translate(-34.1 49.55) rotate(-59.92)"/><path class="cls-6" d="M27.41,52.46l-1.48,1.9L25.69,52a2.39,2.39,0,0,1,1.45.31Z"/><path class="cls-6" d="M27.83,55.84l-1.9-1.48,2.4-.24A2.4,2.4,0,0,1,28,55.56,2.52,2.52,0,0,1,27.83,55.84Z"/><path class="cls-6" d="M24.45,56.26l1.48-1.9.24,2.39a2.38,2.38,0,0,1-1.45-.31Z"/><path class="cls-6" d="M24,52.88l1.9,1.48-2.4.24a2.4,2.4,0,0,1,.31-1.45A2.64,2.64,0,0,1,24,52.88Z"/><circle class="cls-3" cx="25.93" cy="36.85" r="1.6" transform="translate(-18.96 40.83) rotate(-59.93)"/><path class="cls-11" d="M26.83,35.69l-.9,1.16-.15-1.46a1.46,1.46,0,0,1,.89.19Z"/><path class="cls-11" d="M27.09,37.76l-1.16-.9,1.46-.15a1.46,1.46,0,0,1-.19.89Z"/><path class="cls-11" d="M25,38l.9-1.16.15,1.46a1.48,1.48,0,0,1-.89-.19Z"/><path class="cls-11" d="M24.77,35.95l1.16.91L24.47,37a1.47,1.47,0,0,1,.19-.89Z"/><circle class="cls-3" cx="20.96" cy="36.85" r="1.6" transform="translate(-14.95 14.32) rotate(-28.26)"/><path class="cls-11" d="M22.33,36.34,21,36.85l.64-1.32a1.46,1.46,0,0,1,.65.63A1.42,1.42,0,0,1,22.33,36.34Z"/><path class="cls-11" d="M21.47,38.23,21,36.85l1.32.64a1.47,1.47,0,0,1-.63.65Z"/><path class="cls-11" d="M19.58,37.37,21,36.85l-.64,1.32a1.46,1.46,0,0,1-.65-.63A1.36,1.36,0,0,1,19.58,37.37Z"/><path class="cls-11" d="M20.44,35.47,21,36.85l-1.32-.64a1.46,1.46,0,0,1,.63-.66Z"/><path class="cls-6" d="M25.93,43h0a.84.84,0,0,1,.83.83v5.44a.84.84,0,0,1-.83.83h0a.84.84,0,0,1-.83-.83V43.8A.84.84,0,0,1,25.93,43Z"/><path class="cls-11" d="M54.75,28.87a20.6,20.6,0,0,1,1.71,1.25H30.3A20.43,20.43,0,0,1,32,28.87Z"/></g></g></svg>